<?xml version="1.0" standalone="no"?>
<!DOCTYPE svg PUBLIC "-//W3C//DTD SVG 20010904//EN"
 "http://www.w3.org/TR/2001/REC-SVG-20010904/DTD/svg10.dtd">
<svg version="1.0" xmlns="http://www.w3.org/2000/svg"
 width="1333.000000pt" height="1333.000000pt" viewBox="0 0 1333.000000 1333.000000"
 preserveAspectRatio="xMidYMid meet">
<metadata>
Created by potrace 1.14, written by Peter Selinger 2001-2017
</metadata>
<g transform="translate(0.000000,1333.000000) scale(0.100000,-0.100000)"
fill="#000000" stroke="none">
<path d="M0 11035 l0 -2295 21 3 c13 1 26 -6 33 -18 6 -11 14 -22 17 -25 8 -7
4 -50 -6 -74 -7 -16 -5 -18 15 -13 17 4 20 3 11 -6 -16 -16 -14 -48 4 -41 18
7 30 -35 19 -68 -4 -13 -6 -27 -4 -33 2 -5 4 -23 5 -40 1 -16 5 -40 9 -53 9
-28 -15 -39 -50 -24 -28 13 -33 52 -9 72 8 7 15 21 15 32 0 17 -3 18 -15 8 -8
-7 -15 -19 -15 -27 0 -8 -3 -12 -8 -9 -7 4 -7 43 -2 156 3 48 -13 100 -30 100
-7 0 -10 -1383 -10 -4340 l0 -4340 375 0 c226 0 375 4 375 9 0 5 -7 43 -15 83
-9 40 -20 147 -25 238 -6 91 -12 195 -15 232 -7 100 22 495 51 683 8 55 21
145 29 200 8 55 28 161 45 235 18 74 34 146 37 160 12 63 106 346 123 369 54
78 117 182 230 381 24 41 82 138 130 215 47 77 100 164 116 193 16 29 53 85
81 125 86 118 137 197 193 297 29 52 71 123 93 158 63 98 72 116 157 287 43
88 82 174 86 190 4 17 24 64 45 105 21 41 52 107 69 145 17 39 37 81 44 95 25
45 163 383 190 465 15 44 31 89 37 100 5 11 31 85 58 165 27 80 63 181 79 225
57 150 93 250 130 355 54 156 140 316 245 454 51 66 94 123 97 126 3 3 26 32
51 65 25 33 75 98 111 145 35 47 78 108 93 135 16 28 47 71 69 96 23 25 64 80
91 123 28 42 68 100 89 128 21 28 75 103 118 167 44 64 90 124 101 134 12 10
47 42 77 71 64 60 202 168 277 215 47 29 75 61 53 61 -9 0 -70 -45 -146 -107
-23 -18 -46 -33 -52 -33 -13 0 -19 38 -33 215 -23 299 -28 458 -13 489 14 30
14 31 -44 90 -119 124 -187 198 -195 212 -14 25 -1 41 38 47 41 7 75 32 75 54
0 10 -13 4 -37 -16 -30 -25 -47 -31 -83 -31 -41 0 -50 5 -86 43 -135 142 -150
209 -62 278 49 39 75 50 95 42 55 -21 190 -141 204 -182 6 -18 18 -31 27 -31
10 0 30 -16 45 -35 15 -19 31 -35 35 -35 4 0 7 24 8 53 0 28 3 103 8 165 l7
112 -35 58 c-43 69 -81 192 -90 287 -3 39 -8 187 -11 330 -7 312 -20 448 -46
491 -10 17 -19 39 -19 48 0 20 -39 22 -46 1 -4 -9 -19 -15 -39 -15 -37 0 -67
35 -67 77 0 13 -8 28 -18 33 -10 5 -27 26 -39 45 -14 25 -27 35 -39 32 -20 -4
-72 19 -72 33 0 5 -9 12 -21 15 -31 10 -5 35 37 35 18 0 36 4 39 10 4 6 16 3
31 -6 29 -20 37 -15 37 23 0 16 8 34 18 41 11 7 17 17 14 22 -3 4 0 10 7 12
17 6 -20 54 -57 72 -25 13 -32 13 -40 2 -8 -10 -32 -13 -88 -11 -71 2 -81 0
-102 -21 -18 -18 -31 -22 -66 -19 -24 1 -51 6 -60 10 -10 3 -31 -3 -50 -14
-20 -13 -27 -21 -17 -21 14 0 14 -4 5 -25 -7 -14 -14 -25 -17 -25 -3 0 -10 11
-17 25 -6 14 -7 25 -2 25 5 0 9 5 9 11 0 8 -4 8 -14 0 -7 -6 -30 -12 -50 -13
-20 -1 -36 -6 -35 -12 4 -38 -11 -47 -37 -22 -12 13 -11 16 7 21 15 5 18 10
10 18 -8 8 -26 6 -64 -6 -30 -9 -73 -17 -96 -17 -39 0 -42 2 -36 21 5 15 4 19
-4 15 -6 -4 -25 4 -42 18 -17 14 -35 26 -41 26 -12 0 -3 58 14 96 9 18 19 24
45 24 78 0 8 36 -82 41 -22 2 -46 7 -52 12 -18 14 -16 35 5 42 28 9 73 54 75
74 1 15 10 20 39 23 21 2 38 0 38 -4 0 -16 27 4 38 30 31 66 37 73 62 70 20
-2 24 -8 22 -28 -1 -14 -2 -36 -2 -48 0 -16 -7 -26 -20 -29 -26 -7 -26 -20 0
-28 11 -4 20 -15 20 -27 0 -18 2 -19 16 -7 9 7 12 15 7 16 -12 4 -4 63 8 63 5
0 9 6 10 13 0 15 113 70 117 57 6 -16 22 -12 22 5 0 8 -5 15 -12 15 -6 0 -1 9
12 20 34 30 44 20 43 -40 0 -44 -5 -57 -24 -72 -54 -41 -58 -48 -40 -77 11
-17 93 -33 105 -20 6 5 18 9 28 9 13 0 18 8 18 29 0 67 31 101 60 66 7 -9 15
-14 17 -11 5 4 -24 99 -39 129 -11 23 6 89 38 144 26 45 50 63 83 63 12 0 21
6 21 14 0 7 14 16 32 20 31 6 55 -3 30 -11 -20 -8 -3 -23 26 -23 39 0 185 -32
200 -45 8 -5 24 -20 37 -32 12 -13 25 -23 28 -23 7 0 51 -31 147 -102 35 -27
68 -48 72 -48 4 0 8 -9 8 -20 0 -11 10 -26 23 -35 13 -8 31 -33 41 -55 10 -23
22 -37 28 -34 6 4 8 2 5 -3 -4 -6 6 -42 21 -79 16 -38 32 -81 35 -96 4 -15 19
-39 34 -52 29 -27 26 -40 -10 -41 -13 0 -21 -5 -19 -14 10 -49 32 -349 33
-466 1 -123 -2 -151 -24 -230 -14 -49 -35 -133 -47 -185 -12 -52 -28 -116 -36
-143 -22 -66 -42 -214 -32 -229 5 -9 8 -5 8 11 0 22 8 58 67 286 36 141 119
412 143 470 5 11 20 47 33 80 46 112 98 230 118 270 12 22 37 72 57 110 69
137 254 432 371 595 271 375 527 622 836 807 425 253 939 417 1425 453 260 20
479 3 666 -50 60 -17 165 -47 234 -66 69 -19 163 -49 210 -66 201 -73 486
-223 725 -383 138 -92 198 -140 317 -254 352 -339 533 -586 705 -965 102 -225
188 -515 233 -781 17 -105 22 -176 23 -370 1 -161 -2 -258 -10 -295 -7 -30
-17 -107 -23 -170 -15 -167 -52 -351 -75 -370 -10 -8 -22 4 -50 49 -62 103
-170 176 -276 187 -38 4 -74 2 -84 -3 -13 -8 -2 -11 46 -15 98 -9 175 -40 232
-96 96 -95 144 -199 172 -377 37 -232 -5 -495 -120 -754 -71 -160 -123 -245
-201 -330 -110 -119 -247 -209 -404 -266 -65 -23 -84 -26 -145 -21 -133 12
-200 37 -277 106 -27 23 -48 38 -48 32 0 -22 90 -97 150 -125 56 -26 79 -31
165 -35 83 -3 111 0 163 17 35 12 67 19 72 16 25 -15 -238 -408 -458 -684
-151 -188 -182 -233 -197 -285 -17 -55 -36 -323 -34 -476 1 -145 18 -339 35
-397 l14 -51 -49 -114 c-161 -372 -373 -758 -536 -978 -39 -52 -86 -116 -105
-141 -78 -105 -191 -237 -242 -284 -62 -57 -229 -178 -363 -265 -49 -32 -151
-97 -225 -145 -199 -128 -198 -128 -209 -153 -15 -32 -14 -140 5 -310 13 -126
23 -199 61 -456 8 -50 -5 -57 -87 -50 -84 7 -145 20 -255 54 -122 38 -151 52
-321 154 -100 60 -249 197 -397 365 -69 78 -66 58 4 -29 83 -103 149 -169 242
-242 44 -35 103 -82 131 -104 126 -101 396 -200 625 -230 43 -6 50 -9 35 -17
-15 -9 -203 -76 -391 -140 -35 -11 -75 -31 -90 -43 -26 -21 -27 -25 -28 -120
0 -210 32 -806 54 -1004 6 -47 13 -139 16 -205 3 -66 10 -145 15 -175 5 -30
12 -151 16 -267 l6 -213 2783 0 2783 0 7 53 c12 90 74 400 89 442 8 22 20 67
26 100 28 136 43 197 86 335 78 248 182 521 201 527 15 5 -1 -56 -27 -108 -20
-38 -105 -288 -165 -484 -21 -66 -45 -145 -55 -175 -10 -30 -23 -84 -30 -120
-6 -36 -24 -130 -40 -210 -16 -80 -37 -190 -45 -244 -9 -55 -18 -103 -21 -108
-3 -4 213 -8 480 -8 l486 0 0 1559 0 1559 -32 7 c-18 4 -54 18 -80 31 -26 13
-52 24 -59 24 -6 0 -22 9 -36 20 -14 11 -34 20 -44 20 -10 0 -30 5 -46 12 -15
6 -34 12 -40 14 -36 7 -73 31 -73 46 0 10 0 20 0 23 0 11 15 -1 17 -13 1 -8 5
-17 9 -20 3 -4 5 8 2 25 -2 18 -2 33 1 33 10 0 11 79 1 85 -6 3 -10 17 -10 31
0 13 -6 24 -12 24 -10 0 -10 2 0 8 21 14 32 68 18 88 -10 13 -21 15 -52 10
-74 -13 -104 -14 -104 -4 0 5 -6 6 -12 1 -12 -7 -141 -24 -183 -24 -122 2
-152 4 -163 14 -8 6 -31 10 -52 9 -32 -2 -43 3 -69 30 -29 30 -29 33 -11 36
11 2 20 7 20 12 0 17 34 20 52 4 10 -10 19 -15 21 -13 1 2 16 22 33 44 24 31
30 49 29 82 -1 53 -8 60 -34 34 -12 -12 -28 -21 -36 -21 -19 0 -84 63 -89 87
-9 42 -19 63 -30 63 -19 1 -69 47 -62 58 9 15 36 3 37 -17 0 -13 2 -13 6 -1 3
8 12 20 20 27 13 10 12 15 -2 37 -10 14 -23 26 -30 26 -7 0 -18 7 -25 15 -10
12 -9 16 6 21 11 4 26 15 34 26 21 25 77 32 88 12 11 -19 62 -15 73 6 4 8 11
28 14 43 4 20 10 27 20 23 17 -6 35 23 35 58 0 13 6 26 12 29 9 3 6 10 -10 22
-12 9 -29 29 -37 46 -9 16 -24 29 -34 29 -10 0 -22 7 -25 16 -10 25 -133 16
-165 -12 -17 -16 -35 -22 -64 -21 -35 2 -42 6 -47 27 l-6 25 -24 -28 c-13 -15
-30 -27 -37 -27 -8 0 -12 -4 -9 -9 7 -10 -22 -24 -34 -16 -5 3 -7 -4 -5 -16 5
-23 21 -39 42 -39 7 0 17 -8 23 -17 8 -12 13 -14 16 -6 3 7 11 10 17 8 7 -2
25 -6 40 -10 24 -5 28 -10 25 -33 -2 -22 -9 -28 -35 -30 -18 -2 -33 -9 -33
-15 0 -7 -4 -6 -10 3 -8 11 -9 8 -4 -12 7 -30 -8 -38 -76 -40 -60 -1 -80 -8
-80 -25 0 -12 -11 -6 -40 22 -38 37 -51 65 -31 65 5 0 11 15 13 34 3 27 0 36
-14 39 -9 3 -19 2 -22 -1 -11 -10 -6 -42 7 -43 6 0 1 -5 -12 -10 -17 -7 -30
-6 -45 4 -12 8 -46 20 -76 27 -66 17 -80 26 -80 54 0 43 -22 50 -77 23 -31
-14 -29 -21 11 -36 25 -10 32 -18 29 -32 -3 -11 -9 -19 -13 -19 -5 0 -15 -2
-22 -5 -8 -3 -26 6 -41 21 -23 23 -31 25 -67 19 -33 -6 -41 -4 -47 12 -3 10
-11 21 -17 25 -7 5 -3 8 9 8 17 1 18 2 4 10 -9 5 -28 6 -45 0 -24 -7 -25 -8
-6 -9 31 -1 28 -19 -5 -28 -27 -7 -142 -8 -193 0 -14 2 -30 -1 -37 -6 -18 -13
-58 -4 -58 13 0 8 6 15 14 15 25 0 23 22 -3 27 -29 6 -36 2 -36 -23 0 -10 -9
-20 -19 -24 -11 -3 -23 -15 -26 -25 -4 -11 -13 -27 -22 -35 -8 -9 -17 -34 -20
-56 -7 -51 -15 -55 -46 -23 -21 21 -35 25 -81 25 -32 0 -56 5 -56 11 0 5 -6 8
-13 5 -10 -4 -13 2 -10 21 3 21 2 23 -5 8 -7 -17 -10 -15 -30 15 -19 30 -20
34 -5 38 23 5 45 29 38 41 -3 5 -16 10 -27 10 -12 0 -30 7 -40 17 -10 9 -32
16 -48 16 -22 0 -39 11 -65 38 l-35 38 37 25 c24 16 45 23 59 20 12 -3 25 -1
28 5 5 7 -4 11 -23 11 -17 0 -31 5 -31 10 0 6 8 10 19 10 26 0 39 20 36 58 -2
21 2 35 11 39 21 8 17 21 -8 25 -13 2 -23 10 -23 18 0 19 60 25 98 11 30 -12
37 -32 10 -29 -35 3 -54 -2 -48 -12 3 -6 19 -10 34 -10 23 0 31 -7 44 -41 15
-37 19 -41 43 -35 18 5 32 2 44 -9 10 -9 21 -15 26 -14 5 1 18 1 29 0 17 -1
18 -3 5 -12 -11 -7 -2 -8 30 -3 25 4 56 8 70 9 14 2 29 3 34 4 4 0 5 17 2 37
-7 32 -5 34 11 26 10 -6 30 -8 44 -5 22 4 27 0 33 -24 13 -51 76 -99 76 -57 0
21 -20 57 -36 67 -8 4 -14 15 -14 24 0 10 -6 14 -20 10 -10 -3 -19 -2 -18 2 4
18 -36 91 -53 96 -10 4 -19 15 -19 25 0 10 -7 20 -15 24 -8 3 -14 11 -13 18 4
20 -104 12 -119 -9 -15 -19 -63 -10 -63 12 0 10 -10 15 -28 15 -19 0 -38 10
-56 30 -21 24 -32 29 -54 24 -15 -3 -34 -15 -44 -25 -9 -10 -24 -19 -33 -19
-14 0 -16 -9 -13 -55 3 -51 2 -55 -19 -55 -20 0 -23 5 -23 35 0 30 -4 35 -27
41 -16 3 -34 7 -41 10 -7 2 -10 -1 -7 -6 3 -6 -1 -10 -9 -10 -23 0 -20 -19 6
-42 16 -13 23 -32 24 -61 1 -22 6 -43 12 -45 13 -4 3 -34 -15 -45 -8 -5 -11
-17 -7 -33 4 -14 2 -24 -5 -24 -15 0 -14 -33 2 -49 10 -11 2 -12 -43 -5 -30 5
-75 8 -100 7 -28 -2 -54 4 -70 14 -14 9 -38 16 -54 15 -22 -2 -36 5 -53 24
-13 15 -23 31 -23 36 0 4 -4 8 -10 8 -5 0 -10 -7 -10 -15 0 -8 -7 -15 -16 -15
-14 0 -15 7 -10 42 9 58 -16 108 -65 132 -23 11 -40 28 -43 42 -5 17 -13 24
-30 24 -13 0 -27 7 -30 16 -5 13 -17 15 -61 10 -51 -5 -57 -3 -66 18 -9 19 -4
29 35 72 26 27 49 59 52 71 3 12 17 24 32 28 15 4 35 15 45 25 9 11 23 17 30
15 17 -7 54 51 72 113 22 72 50 101 104 107 25 3 50 9 55 14 6 5 31 11 55 15
24 4 57 14 73 22 34 17 47 9 48 -31 1 -20 1 -20 18 1 11 13 30 21 46 22 45 0
54 18 18 39 -52 29 -38 64 35 89 28 10 35 10 39 -2 15 -50 14 -49 30 -32 15
14 14 18 -5 37 -15 15 -20 29 -16 42 4 11 2 19 -5 19 -6 0 1 16 16 35 14 19
31 35 36 35 6 0 33 23 60 50 27 28 55 50 63 50 7 0 15 9 18 21 4 15 12 20 29
17 36 -5 29 26 -7 32 -37 7 -24 15 38 24 42 6 47 5 47 -11 0 -11 -4 -23 -8
-28 -5 -6 -3 -21 4 -35 l14 -25 0 33 c0 22 5 32 15 32 9 0 18 6 21 14 3 8 13
12 23 9 25 -6 81 43 81 72 0 13 5 27 10 30 6 3 10 -3 10 -14 0 -12 4 -21 9
-21 5 0 8 8 7 17 0 11 7 18 20 19 30 2 44 12 44 33 0 23 34 33 67 20 37 -14
84 17 53 36 -16 10 8 45 31 45 12 0 23 -8 26 -20 3 -11 9 -20 13 -20 5 0 6 9
3 20 -6 24 12 26 34 4 12 -12 27 -14 55 -10 37 6 39 5 44 -24 9 -41 24 -38 24
4 0 32 30 76 30 45 1 -10 4 -9 14 3 8 11 20 15 34 11 13 -3 22 -1 22 6 0 6
-11 13 -25 17 -29 7 -32 20 -7 33 11 6 35 6 66 -1 57 -12 96 -4 97 20 0 9 10
-7 22 -35 13 -31 28 -53 37 -53 9 0 24 -6 35 -13 24 -16 77 -15 83 1 2 7 -1
12 -7 12 -17 0 -13 50 4 56 10 4 15 19 14 43 -1 20 -3 28 -6 19 -2 -10 -9 -18
-14 -18 -5 0 -14 -10 -19 -22 -5 -13 -9 -17 -9 -10 -1 9 -8 11 -21 7 -18 -6
-18 -4 -9 24 6 16 17 32 25 35 8 3 14 12 14 20 0 16 27 29 41 20 5 -3 6 -11 2
-17 -4 -7 4 -4 17 6 14 9 35 21 47 26 11 6 24 15 28 21 9 14 25 3 25 -18 0
-13 -2 -14 -9 -4 -6 10 -10 10 -21 -3 -7 -8 -19 -15 -27 -15 -22 0 -6 -40 29
-73 29 -27 60 -29 38 -2 -8 10 -3 18 22 33 30 19 34 20 50 5 17 -15 20 -15 38
2 12 10 18 25 15 33 -7 18 42 72 64 72 23 -1 101 -80 78 -80 -24 0 -21 -17 4
-23 24 -6 81 13 61 20 -10 4 -10 8 -1 19 16 20 32 17 53 -7 18 -21 18 -23 -4
-60 -11 -22 -19 -43 -16 -48 8 -13 56 -20 56 -8 0 5 12 7 26 4 16 -3 28 0 31
9 4 10 11 7 26 -12 13 -17 16 -28 9 -33 -7 -4 -8 -12 -2 -20 4 -8 6 -21 3 -30
-4 -14 -3 -14 6 -1 6 8 11 24 12 35 1 17 2 17 6 3 2 -10 12 -18 22 -18 9 0 25
-9 34 -21 10 -11 21 -18 25 -14 4 4 1 10 -6 12 -6 3 -9 9 -6 15 3 5 -4 12 -15
15 -17 4 -19 8 -10 19 9 11 8 18 -1 29 -9 11 -9 15 -1 15 6 0 15 -8 18 -17 13
-36 61 -45 84 -17 12 15 26 14 82 -2 12 -4 17 0 17 14 0 31 29 36 42 7 6 -14
15 -25 20 -25 19 0 36 -27 27 -41 -13 -22 -11 -55 6 -69 10 -9 15 -9 15 -1 0
6 6 11 14 11 8 0 22 7 31 16 15 15 18 15 37 -5 19 -21 19 -23 3 -41 -17 -19
-16 -20 11 -30 16 -5 42 -16 57 -25 16 -8 35 -15 43 -15 18 0 18 -5 -3 -30
-21 -25 -78 -27 -91 -4 -11 20 -57 15 -57 -6 0 -9 11 -16 28 -18 19 -2 27 -9
27 -22 0 -18 77 -80 99 -80 6 0 11 -4 11 -9 0 -5 10 -11 21 -13 32 -5 49 -36
27 -52 -13 -10 -15 -20 -8 -49 13 -61 63 -104 84 -75 6 8 18 17 26 21 11 4 9
6 -5 6 -30 1 -68 30 -57 44 4 7 9 25 10 41 3 37 2 37 40 27 34 -10 45 -3 48
33 0 11 6 22 12 24 9 3 12 956 12 3853 l0 3849 -6665 0 -6665 0 0 -2295z
m3618 2266 l34 -6 -26 -28 c-15 -16 -20 -27 -12 -27 25 0 40 -28 28 -53 -11
-22 -11 -22 -11 -1 -1 16 -9 23 -33 28 -41 8 -57 -7 -35 -32 9 -10 22 -32 27
-49 6 -17 21 -36 33 -42 18 -9 14 -10 -23 -5 -25 3 -52 12 -61 20 -18 16 -121
14 -126 -3 -2 -6 4 -10 14 -9 26 2 20 -47 -11 -86 -21 -28 -32 -32 -83 -37
-32 -2 -74 -4 -93 -4 -19 0 -41 -6 -48 -14 -14 -14 -62 -8 -73 10 -4 5 -23 7
-42 4 -25 -4 -37 -1 -41 9 -7 19 -26 18 -26 -1 0 -8 -9 -15 -19 -15 -11 0 -23
-4 -26 -10 -3 -5 -15 -10 -26 -10 -15 0 -19 7 -20 33 -1 17 0 38 1 46 1 8 -3
17 -8 20 -15 9 -17 43 -3 72 11 22 10 31 -3 57 -10 19 -12 33 -6 37 16 10 12
29 -10 53 -37 40 -27 48 68 51 57 2 62 0 62 -18 0 -15 -7 -21 -22 -22 -15 -1
-10 -4 12 -8 19 -4 41 -5 48 -3 18 6 15 40 -5 45 -10 2 51 4 136 5 85 1 156 4
158 5 5 5 236 -5 271 -12z m-1405 0 c20 -5 39 -6 42 -1 7 11 195 12 195 0 0
-5 -7 -10 -16 -10 -8 0 -22 -6 -29 -14 -12 -12 -12 -15 0 -20 21 -8 76 4 69
15 -3 5 2 6 11 3 12 -5 16 -2 13 12 -3 17 4 19 60 20 34 0 62 -3 62 -7 0 -4 3
-14 6 -22 3 -10 -8 -20 -38 -32 -36 -14 -40 -18 -25 -26 10 -6 25 -9 35 -8 41
4 50 -1 47 -26 -1 -14 1 -25 6 -25 19 0 31 -42 19 -64 -7 -15 -8 -30 -2 -47
15 -38 -13 -67 -44 -46 -12 7 -27 -6 -37 -33 -4 -10 -6 -8 -6 7 -1 12 -5 25
-11 28 -13 8 -13 25 1 25 5 0 7 -4 4 -10 -3 -5 0 -10 7 -10 13 0 40 54 32 63
-10 10 -54 -7 -54 -20 0 -12 -8 -14 -37 -8 -21 4 -42 12 -46 18 -4 7 -7 -3 -5
-23 1 -19 -2 -42 -7 -50 -5 -9 -4 -15 3 -18 7 -2 12 -10 12 -17 0 -8 11 -25
24 -38 12 -13 26 -30 29 -38 5 -12 8 -12 19 2 7 9 23 21 36 28 13 7 27 23 32
37 14 35 30 20 30 -27 0 -24 -4 -38 -10 -34 -14 9 -12 -39 2 -53 9 -9 7 -12
-10 -12 -12 0 -22 -4 -22 -9 0 -17 -32 -21 -53 -6 -27 19 -49 2 -41 -31 5 -18
2 -24 -10 -24 -14 0 -16 -8 -11 -48 5 -42 2 -52 -19 -75 -23 -25 -26 -25 -41
-11 -10 10 -13 23 -9 33 4 9 8 43 8 76 1 33 5 65 9 72 8 12 -17 61 -38 75 -5
4 -17 0 -27 -9 -14 -13 -21 -13 -32 -4 -8 7 -20 10 -26 6 -5 -3 -13 1 -17 10
-3 10 0 21 7 25 10 6 10 16 -4 49 -19 48 -20 61 -5 61 5 0 7 -4 4 -10 -3 -5
-1 -10 5 -10 21 0 4 25 -19 28 -35 5 -46 -12 -27 -45 8 -15 20 -52 25 -81 7
-43 6 -55 -5 -59 -11 -4 -12 -9 -4 -19 8 -8 8 -19 2 -31 -5 -10 -7 -24 -5 -30
3 -7 0 -13 -6 -13 -6 0 -11 5 -11 11 0 6 -8 9 -17 7 -13 -2 -17 -17 -20 -63
-4 -65 -9 -75 -40 -78 -13 0 -19 -6 -16 -14 3 -7 -2 -13 -11 -13 -9 0 -16 5
-16 10 0 6 -13 10 -29 10 -24 0 -31 -5 -36 -30 -4 -16 -4 -34 0 -40 12 -19
-22 -57 -50 -57 -37 0 -40 13 -11 48 21 25 23 34 15 53 -9 18 -6 30 10 57 12
19 21 41 21 49 0 12 12 15 55 15 45 -1 55 2 53 14 -2 10 -12 15 -28 13 l-25
-3 22 20 c18 15 20 20 9 24 -8 3 -16 21 -18 39 -2 23 -9 34 -22 36 -22 5 -39
20 -45 42 -10 32 -2 104 12 115 9 7 14 24 12 48 -3 28 1 40 16 47 10 6 19 7
19 3 0 -4 5 -2 10 3 7 7 6 29 -1 67 -13 64 -36 76 -64 33 -14 -21 -19 -22 -40
-12 -13 6 -32 27 -42 46 -10 19 -27 43 -38 52 -19 17 -14 18 105 18 69 0 142
-4 163 -9z m1632 -1 c8 -13 -5 -13 -25 0 -13 8 -13 10 2 10 9 0 20 -4 23 -10z
m-1031 -12 c-5 -7 0 -9 14 -6 12 4 23 0 26 -8 6 -17 -7 -26 -27 -18 -8 3 -18
1 -22 -5 -3 -6 -18 -11 -33 -10 -22 0 -24 2 -8 8 17 7 17 8 2 23 -23 24 -20
28 20 28 24 0 33 -4 28 -12z m2044 5 c-10 -2 -28 -2 -40 0 -13 2 -5 4 17 4 22
1 32 -1 23 -4z m-4491 -19 c-3 -3 -12 -4 -19 -1 -8 3 -5 6 6 6 11 1 17 -2 13
-5z m1500 0 c-3 -3 -12 -4 -19 -1 -8 3 -5 6 6 6 11 1 17 -2 13 -5z m1916 -1
c-7 -2 -19 -2 -25 0 -7 3 -2 5 12 5 14 0 19 -2 13 -5z m-903 -134 c0 -5 -9
-13 -20 -19 -16 -9 -22 -8 -26 5 -9 23 15 48 32 34 8 -6 14 -15 14 -20z
m-1100 1 c0 -5 -4 -10 -10 -10 -5 0 -10 5 -10 10 0 6 5 10 10 10 6 0 10 -4 10
-10z m139 -27 c8 -15 13 -15 36 -5 32 15 45 15 45 1 0 -13 -49 -54 -65 -54 -5
0 -20 -11 -33 -25 -20 -23 -23 -24 -33 -7 -5 9 -16 17 -24 17 -15 0 -14 6 7
63 12 31 51 38 67 10z m-119 -73 c0 -5 8 -10 17 -10 25 0 3 -18 -27 -22 -20
-2 -26 2 -28 20 -3 17 2 22 17 22 12 0 21 -4 21 -10z m1769 -33 c13 -16 5 -27
-21 -27 -25 0 -53 26 -35 33 23 10 44 7 56 -6z m-2531 -40 c2 -9 -8 -26 -22
-38 -30 -26 -34 -64 -9 -77 15 -9 14 -11 -5 -21 -16 -9 -24 -8 -36 5 -18 18
-21 34 -6 34 6 0 10 9 10 19 0 10 7 22 16 25 9 3 14 15 13 28 -6 43 31 66 39
25z m150 -21 c9 -19 8 -25 -4 -30 -8 -3 -19 -17 -24 -31 -10 -27 -30 -34 -30
-10 0 21 31 95 39 95 5 0 13 -11 19 -24z m1636 -42 c8 -20 -1 -34 -20 -34 -15
0 -17 9 -8 34 8 20 20 20 28 0z m-1706 -61 c2 -36 0 -43 -15 -43 -10 0 -25 5
-33 10 -12 8 -13 12 -2 19 19 12 10 46 -11 45 -9 -1 -17 2 -17 8 0 5 17 8 37
6 37 -3 38 -4 41 -45z m1818 -3 c-3 -40 -16 -51 -16 -13 0 25 6 43 16 43 1 0
1 -13 0 -30z m-116 -18 c0 -4 -16 -23 -35 -42 l-35 -34 0 30 c0 17 5 35 12 42
13 13 58 16 58 4z m-1832 -45 c13 -16 2 -69 -16 -75 -7 -2 -12 6 -12 20 0 13
-3 33 -6 46 -7 25 16 31 34 9z m186 -22 c3 -9 -5 -21 -22 -32 -15 -10 -30 -22
-34 -27 -4 -6 -15 1 -27 15 -18 21 -18 25 -5 36 9 6 22 9 30 6 8 -3 14 0 14 6
0 17 37 13 44 -4z m1984 -35 c24 -30 22 -50 -4 -50 -14 0 -45 59 -37 73 7 12
17 7 41 -23z m-898 0 c0 -5 -4 -10 -10 -10 -5 0 -10 5 -10 10 0 6 5 10 10 10
6 0 10 -4 10 -10z m-1056 -46 c8 -20 -1 -34 -20 -34 -8 0 -14 10 -14 25 0 28
24 34 34 9z m1076 12 c0 -3 -4 -8 -10 -11 -5 -3 -10 -1 -10 4 0 6 5 11 10 11
6 0 10 -2 10 -4z m-1180 -31 c0 -14 -4 -25 -10 -25 -11 0 -14 33 -3 43 11 11
13 8 13 -18z m863 -15 c31 0 46 -24 30 -48 -13 -22 -71 -36 -88 -22 -11 9 -17
6 -26 -12 -7 -13 -12 -33 -10 -44 1 -12 -5 -28 -13 -37 -9 -9 -16 -21 -16 -27
0 -7 -6 -10 -14 -7 -19 8 -43 -20 -29 -34 13 -13 40 -2 46 20 2 10 13 20 24
23 26 7 29 -31 4 -74 -12 -23 -25 -33 -42 -33 -15 0 -28 -8 -34 -23 -10 -23
-25 -30 -25 -12 0 6 -15 24 -32 40 -31 28 -32 31 -15 44 27 21 31 96 5 96 -6
0 -8 -12 -5 -29 5 -25 4 -28 -19 -23 -13 2 -24 11 -24 19 0 13 -3 13 -15 3
-27 -23 -27 -3 0 24 14 14 35 26 45 26 11 0 30 11 44 25 14 14 32 25 40 25 22
0 42 40 25 51 -9 5 -5 11 17 21 16 7 35 18 42 25 11 11 18 10 35 -2 12 -8 34
-15 50 -15z m625 2 c3 -9 -2 -13 -14 -10 -9 1 -19 9 -22 16 -3 9 2 13 14 10 9
-1 19 -9 22 -16z m482 8 c0 -5 -4 -10 -9 -10 -6 0 -13 5 -16 10 -3 6 1 10 9
10 9 0 16 -4 16 -10z m-1429 -107 c1 -10 -3 -30 -9 -44 -10 -24 -15 -26 -71
-27 -58 -1 -62 1 -76 28 -19 37 -19 40 5 40 11 0 20 6 21 13 0 9 2 9 6 -1 2
-6 9 -10 14 -6 5 3 23 -4 39 -16 26 -18 30 -19 30 -5 0 9 -4 13 -10 10 -11 -7
-14 34 -4 58 4 12 10 10 29 -9 13 -13 25 -32 26 -41z m-151 37 c0 -5 -4 -10
-10 -10 -5 0 -10 5 -10 10 0 6 5 10 10 10 6 0 10 -4 10 -10z m830 -45 c0 -33
-4 -45 -15 -45 -8 0 -15 -9 -15 -20 0 -11 5 -20 11 -20 15 0 -8 -27 -34 -42
-14 -7 -22 -7 -27 1 -5 9 -10 8 -20 -4 -10 -12 -10 -15 2 -15 17 0 52 -56 43
-70 -12 -20 -36 -9 -46 20 -8 22 -17 30 -35 30 -14 0 -27 7 -30 15 -4 9 -20
15 -43 15 -20 0 -43 5 -51 10 -13 9 -13 12 4 25 11 8 20 29 22 50 1 20 9 47
18 60 14 22 21 24 73 20 32 -3 69 -10 82 -17 21 -11 25 -10 40 9 9 12 17 22
19 23 1 0 2 -20 2 -45z m-987 13 c20 -16 34 -68 18 -68 -6 0 -14 7 -18 16 -3
8 -16 20 -29 24 -16 6 -22 15 -18 25 7 18 25 19 47 3z m-188 -8 c3 -5 -1 -10
-10 -10 -9 0 -13 5 -10 10 3 6 8 10 10 10 2 0 7 -4 10 -10z m535 -151 c0 -11
-4 -17 -10 -14 -5 3 -10 13 -10 21 0 8 5 14 10 14 6 0 10 -9 10 -21z m410 -29
c0 -5 -7 -7 -15 -4 -8 4 -12 10 -9 15 6 11 24 2 24 -11z m-60 -10 c0 -11 -7
-20 -15 -20 -18 0 -19 12 -3 28 16 16 18 15 18 -8z m115 -20 c10 -16 -15 -40
-41 -40 -28 0 -29 3 -12 30 14 21 43 27 53 10z m180 -120 c-4 -23 -16 -51 -26
-61 -10 -10 -19 -23 -19 -28 0 -5 -11 -11 -25 -13 -30 -6 -32 7 -9 60 9 20 16
49 15 64 -2 22 1 26 17 21 11 -2 23 1 27 7 15 24 27 -8 20 -50z m-425 25 c0
-8 -4 -15 -9 -15 -13 0 -22 16 -14 24 11 11 23 6 23 -9z m150 -29 c0 -11 -19
-15 -25 -6 -3 5 1 10 9 10 9 0 16 -2 16 -4z m36 -23 c-10 -10 -19 5 -10 18 6
11 8 11 12 0 2 -7 1 -15 -2 -18z m-39 -14 c6 -6 9 -18 6 -25 -3 -8 0 -14 7
-14 6 0 8 5 5 10 -3 6 -3 10 2 11 4 0 19 2 31 3 17 2 26 -4 33 -21 5 -14 17
-23 29 -23 22 0 28 -25 7 -33 -8 -3 -20 -1 -28 4 -8 5 -25 9 -39 9 -35 0 -47
10 -65 53 -15 36 -10 48 12 26z m-127 -149 c0 -5 -2 -10 -4 -10 -3 0 -8 5 -11
10 -3 6 -1 10 4 10 6 0 11 -4 11 -10z m-1313 -34 c-4 -9 -11 -16 -17 -16 -11
0 -14 33 -3 44 11 10 26 -11 20 -28z m-67 -56 c0 -5 -5 -10 -11 -10 -5 0 -7 5
-4 10 3 6 8 10 11 10 2 0 4 -4 4 -10z m1040 -70 c0 -5 -2 -10 -4 -10 -3 0 -8
5 -11 10 -3 6 -1 10 4 10 6 0 11 -4 11 -10z m-522 -12 c-3 -7 -12 -14 -21 -16
-12 -2 -15 1 -11 12 7 19 38 22 32 4z m149 -34 c-3 -3 -12 -4 -19 -1 -8 3 -5
6 6 6 11 1 17 -2 13 -5z m120 -25 c14 -37 7 -59 -18 -59 -12 0 -19 -7 -19 -19
0 -14 -5 -18 -20 -14 -11 3 -20 0 -20 -6 0 -6 -5 -11 -11 -11 -6 0 -9 6 -6 14
3 7 -3 27 -13 44 -16 25 -16 31 -5 36 14 5 39 -26 29 -36 -3 -3 4 -8 15 -11
11 -3 20 -2 19 2 -2 8 13 73 19 84 8 14 19 6 30 -24z m-283 5 c5 -14 4 -15 -9
-4 -17 14 -19 20 -6 20 5 0 12 -7 15 -16z m-496 -46 c-3 -7 -13 -13 -23 -13
-10 0 -20 6 -22 13 -3 7 5 12 22 12 17 0 25 -5 23 -12z m863 -38 c27 0 28 -2
28 -56 0 -33 5 -60 11 -64 14 -9 9 -45 -5 -45 -6 0 -11 15 -13 33 -2 22 -8 32
-20 32 -18 0 -102 67 -102 81 0 5 6 9 14 9 7 0 19 7 26 15 9 11 16 13 24 5 5
-5 22 -10 37 -10z m-361 -45 c0 -8 -4 -15 -10 -15 -5 0 -10 7 -10 15 0 8 5 15
10 15 6 0 10 -7 10 -15z m510 -215 c0 -5 -7 -10 -15 -10 -8 0 -15 5 -15 10 0
6 7 10 15 10 8 0 15 -4 15 -10z m-616 -135 c3 -8 1 -15 -3 -15 -5 0 -11 7 -15
15 -3 8 -1 15 3 15 5 0 11 -7 15 -15z m2661 -65 c4 -6 -5 -10 -20 -10 -15 0
-24 4 -20 10 3 6 12 10 20 10 8 0 17 -4 20 -10z m-2157 -40 c-8 -12 -16 -16
-22 -10 -6 6 -4 15 4 24 17 22 32 9 18 -14z m2432 -25 c0 -8 -4 -15 -10 -15
-5 0 -10 7 -10 15 0 8 5 15 10 15 6 0 10 -7 10 -15z m900 -55 c0 -5 -5 -10
-11 -10 -5 0 -7 5 -4 10 3 6 8 10 11 10 2 0 4 -4 4 -10z m-1962 -78 c4 -23 -4
-27 -27 -13 -17 11 -7 45 12 39 6 -3 13 -14 15 -26z m1882 -57 c0 -7 -9 -17
-20 -20 -11 -4 -20 -15 -20 -27 0 -41 -97 -192 -124 -193 -17 0 -56 -25 -56
-36 0 -5 15 -2 33 6 23 12 27 12 15 2 -10 -8 -18 -24 -18 -35 0 -21 -54 -131
-69 -142 -4 -3 -14 -20 -22 -37 -16 -37 -29 -43 -29 -13 0 11 -6 20 -12 20 -7
0 -5 5 5 11 9 5 22 7 27 4 6 -3 10 0 11 7 0 7 2 31 3 53 2 22 -2 47 -9 55 -16
20 -25 70 -12 70 6 0 7 3 4 6 -4 4 -12 2 -20 -4 -10 -8 -16 -6 -25 8 -10 16
-19 19 -57 14 -41 -6 -45 -5 -56 20 -7 14 -21 28 -32 32 -38 12 -2 26 39 15
22 -6 66 -9 98 -8 46 2 62 7 70 22 6 10 21 30 34 44 12 14 22 29 22 33 0 5 10
8 23 8 24 0 69 26 104 59 12 11 29 21 36 21 8 0 20 7 27 15 14 16 30 11 30
-10z m-480 -120 c0 -8 -12 -17 -27 -21 -16 -3 -34 -8 -42 -10 -16 -5 -71 17
-71 28 0 4 13 5 29 2 16 -3 37 -1 48 5 27 16 63 14 63 -4z m-1559 -195 c21
-12 26 -46 7 -47 -7 0 -19 -2 -26 -4 -22 -6 -38 26 -23 45 16 19 17 19 42 6z
m1674 -60 c3 -5 1 -10 -4 -10 -6 0 -11 5 -11 10 0 6 2 10 4 10 3 0 8 -4 11
-10z m-67 -6 c12 -4 21 -12 20 -19 -3 -14 72 -124 85 -125 4 0 7 -7 7 -16 0
-8 -4 -13 -9 -10 -5 4 -7 -3 -4 -14 4 -16 2 -19 -11 -14 -10 4 -16 1 -16 -7 0
-11 -3 -11 -10 1 -8 13 -10 13 -10 1 0 -11 -3 -12 -12 -3 -8 8 -8 15 0 25 22
27 -51 103 -87 89 -9 -3 -12 -1 -7 6 3 6 2 13 -4 17 -18 11 -11 35 11 35 16 0
20 5 16 20 -6 22 -3 23 31 14z m139 -19 c0 -8 -4 -12 -8 -9 -4 2 -9 -1 -11 -7
-2 -7 -13 -9 -25 -5 -30 10 -18 36 16 36 18 0 28 -5 28 -15z m-1071 -70 c3 -8
24 -20 46 -25 49 -14 45 -31 -8 -35 -55 -4 -70 6 -52 34 11 18 11 23 -2 31
-10 7 -11 10 -2 10 7 0 15 -7 18 -15z m-659 -7 c6 -7 13 -29 16 -50 4 -27 1
-40 -13 -53 -17 -15 -19 -15 -34 6 -11 16 -12 27 -5 40 7 15 6 17 -6 13 -19
-8 -19 1 1 31 18 28 27 31 41 13z m93 -42 c0 -15 7 -27 18 -30 13 -4 13 -4 -3
-3 -11 1 -26 -2 -33 -7 -7 -4 -16 -5 -20 -1 -3 3 0 10 7 14 7 5 10 14 7 20 -8
13 1 31 15 31 5 0 9 -11 9 -24z m523 -61 c5 -31 26 -65 41 -65 2 0 6 10 8 23
2 12 9 22 16 22 7 0 17 7 23 15 8 13 11 12 24 -4 19 -26 19 -34 -2 -39 -10 -3
-5 -5 12 -6 55 -2 101 -84 56 -99 -10 -3 -12 1 -9 15 6 21 -25 48 -42 38 -6
-3 -23 2 -40 11 -33 20 -42 16 -44 -18 -2 -27 10 -38 42 -38 26 0 29 -22 7
-60 -19 -33 -19 -60 0 -60 10 0 15 10 15 32 0 41 11 29 31 -35 18 -56 10 -77
-30 -77 -23 0 -91 38 -91 51 0 5 -4 9 -10 9 -5 0 -9 -3 -7 -7 1 -5 -2 -9 -8
-11 -5 -1 -12 12 -15 30 -4 24 -12 35 -32 42 -15 5 -30 7 -33 4 -4 -3 0 -30 8
-59 21 -76 20 -101 -1 -89 -9 5 -24 11 -33 13 -22 7 -32 114 -14 140 7 10 10
28 7 39 -3 14 1 26 13 35 11 7 19 26 20 41 0 20 6 28 23 30 21 3 18 7 -22 34
-26 16 -46 35 -46 42 0 18 35 35 51 25 18 -12 42 -12 34 0 -5 9 24 21 36 14 4
-1 9 -18 12 -38z m-155 19 c-9 -9 -21 -13 -27 -9 -16 10 -3 25 22 25 20 0 20
-1 5 -16z m7 -65 c5 -7 -5 -8 -32 -3 -51 9 -54 14 -10 14 20 0 39 -5 42 -11z
m415 -219 c0 -5 -4 -10 -9 -10 -6 0 -13 5 -16 10 -3 6 1 10 9 10 9 0 16 -4 16
-10z m-970 -1528 l35 -17 -30 -6 c-16 -3 -34 -2 -39 3 -6 4 -18 8 -28 8 -10 0
-18 2 -18 4 0 2 -3 12 -7 22 -5 15 -2 16 23 10 16 -4 45 -15 64 -24z m-2406 3
c19 -14 19 -15 -5 -15 -23 0 -25 -4 -23 -32 l3 -33 -8 30 c-18 65 -8 81 33 50z
m2528 -12 c10 -9 18 -23 18 -30 0 -8 9 -26 20 -40 11 -14 20 -31 20 -38 0 -7
6 -18 14 -24 22 -18 49 14 41 49 -3 16 -2 31 4 34 10 7 24 -6 61 -54 l20 -25
6 22 c10 35 34 37 69 3 26 -26 39 -30 83 -30 55 0 58 -3 41 -47 -19 -48 -19
-71 2 -76 25 -7 24 -34 -1 -42 -23 -7 -26 -21 -7 -28 9 -3 9 -7 0 -18 -6 -8
-13 -27 -15 -42 -4 -31 -5 -31 -31 -21 -10 4 -23 2 -30 -5 -14 -14 -47 -15
-47 -1 0 6 -6 10 -14 10 -8 0 -16 6 -19 13 -2 6 -8 9 -12 5 -4 -4 0 -14 9 -23
14 -15 14 -18 -2 -43 -36 -57 -48 -65 -90 -58 -25 4 -56 0 -82 -9 -52 -18 -50
-18 -50 0 0 8 -3 15 -7 15 -5 0 -9 -24 -9 -52 -3 -101 -14 -119 -51 -83 -22
22 -64 18 -106 -10 -26 -18 -37 -33 -37 -50 0 -24 -1 -24 -20 -8 -11 10 -20
23 -20 30 0 25 -18 12 -23 -17 -8 -35 -31 -39 -48 -8 -10 19 -9 24 10 36 11 8
21 19 21 24 0 6 -11 3 -25 -6 -13 -9 -31 -16 -39 -16 -20 0 -32 48 -17 63 16
16 14 37 -6 59 -15 16 -15 22 -4 40 11 18 10 27 -6 60 -15 32 -26 41 -67 53
-27 8 -56 15 -63 15 -7 0 -13 9 -13 19 0 23 -4 26 -49 36 l-35 7 17 -25 c9
-15 17 -42 17 -61 0 -19 7 -41 15 -50 20 -20 19 -33 -5 -46 -11 -6 -20 -17
-20 -25 0 -15 -19 -24 -37 -17 -16 5 -17 34 -1 50 11 11 15 106 6 146 -5 20
18 76 31 76 4 0 12 -5 18 -11 8 -8 17 -8 33 1 18 10 25 8 41 -9 23 -24 24 -32
4 -25 -8 4 -15 2 -15 -4 0 -5 11 -12 25 -14 21 -4 28 0 39 26 8 17 14 46 14
64 1 37 21 70 32 52 12 -19 34 19 35 58 0 43 17 51 35 17 18 -33 57 -34 70 -1
5 14 20 26 37 31 15 3 35 13 43 20 20 17 70 8 71 -14 1 -9 0 -26 -1 -38 -1
-17 4 -23 19 -23 28 0 30 8 19 67 -6 29 -8 59 -5 68 8 20 46 19 69 -2z m-292
-73 c-9 -6 -16 -6 -18 0 -2 6 -10 10 -18 10 -17 0 -19 27 -2 32 7 3 22 -4 33
-14 17 -16 18 -20 5 -28z m-2234 -287 c18 -2 35 1 39 7 11 17 24 11 40 -20 19
-37 19 -40 -6 -40 -11 0 -17 5 -14 10 14 23 -26 8 -41 -15 -13 -20 -22 -24
-43 -18 -31 7 -41 20 -41 54 0 30 8 41 24 32 5 -4 25 -8 42 -10z m1846 -39
c10 -9 -3 -42 -18 -48 -10 -4 -14 3 -14 24 0 27 17 40 32 24z m68 -14 c0 -5
-4 -10 -10 -10 -5 0 -10 5 -10 10 0 6 5 10 10 10 6 0 10 -4 10 -10z m-600 -70
c0 -5 -4 -10 -9 -10 -6 0 -13 5 -16 10 -3 6 1 10 9 10 9 0 16 -4 16 -10z
m11470 -1329 c0 -6 -4 -13 -10 -16 -5 -3 -10 1 -10 9 0 9 5 16 10 16 6 0 10
-4 10 -9z m-35 -122 c4 -10 11 -19 16 -19 5 0 9 -7 9 -16 0 -9 -3 -14 -7 -12
-5 3 -23 11 -40 18 -33 14 -44 44 -20 53 19 6 36 -3 42 -24z m-14 -55 c9 -11
6 -14 -20 -14 -24 0 -31 4 -31 19 0 22 31 19 51 -5z m-12741 -27 c0 -21 -12
-28 -27 -16 -19 16 -16 29 7 29 11 0 20 -6 20 -13z m84 -2 c8 -21 -33 -42 -45
-24 -5 8 -9 20 -9 27 0 17 47 15 54 -3z m12645 -64 c9 -6 10 -11 3 -15 -6 -4
-9 -13 -6 -21 4 -10 -3 -18 -21 -25 -21 -8 -25 -13 -16 -23 8 -10 0 -18 -34
-35 l-45 -22 -11 22 c-9 17 -8 24 4 33 10 7 13 20 10 38 -4 20 -1 27 11 27 9
0 13 -6 10 -14 -3 -8 0 -17 6 -21 14 -9 64 40 55 55 -7 12 15 13 34 1z m71
-75 c10 -16 9 -18 -5 -12 -9 3 -25 6 -36 6 -10 0 -19 6 -19 14 0 21 46 15 60
-8z m-287 -20 c6 -16 -2 -28 -14 -20 -12 7 -11 34 0 34 5 0 11 -6 14 -14z m70
-63 c-7 -2 -21 -2 -30 0 -10 3 -4 5 12 5 17 0 24 -2 18 -5z m-1533 -27 c0 -3
-13 -19 -29 -36 -19 -21 -31 -28 -36 -20 -4 6 0 19 9 29 9 10 13 21 9 24 -3 4
6 7 20 7 15 0 27 -2 27 -4z m-240 -17 c0 -7 9 -9 21 -6 13 4 22 0 26 -10 5
-14 8 -13 20 3 14 18 15 18 33 -3 10 -13 23 -23 29 -23 7 0 16 -10 20 -22 7
-18 4 -28 -17 -46 -23 -20 -27 -21 -43 -6 -20 18 -60 16 -67 -4 -2 -7 2 -10
12 -6 20 8 21 -3 1 -22 -8 -9 -15 -12 -15 -7 0 4 -21 8 -46 8 -38 1 -51 6 -70
28 -20 23 -22 31 -12 52 6 14 15 25 21 25 5 0 22 11 39 25 32 27 48 32 48 14z
m268 -21 c-2 -6 -10 -14 -16 -16 -7 -2 -10 2 -6 12 7 18 28 22 22 4z m1227
-138 c10 -31 -5 -45 -20 -18 -6 12 -10 26 -8 31 8 13 22 7 28 -13z m35 -50 c0
-5 -4 -10 -9 -10 -6 0 -13 5 -16 10 -3 6 1 10 9 10 9 0 16 -4 16 -10z m-1720
-20 c0 -5 -7 -10 -15 -10 -8 0 -15 5 -15 10 0 6 7 10 15 10 8 0 15 -4 15 -10z
m1780 -41 c0 -5 -4 -9 -10 -9 -5 0 -10 7 -10 16 0 8 5 12 10 9 6 -3 10 -10 10
-16z m-1055 -10 c-10 -15 -25 -10 -19 6 4 8 10 12 15 9 5 -3 7 -10 4 -15z
m1674 -15 c2 -1 -7 -17 -19 -34 -18 -25 -27 -30 -49 -26 -14 3 -31 3 -37 -2
-16 -10 -55 -93 -49 -103 7 -11 -13 -22 -25 -14 -8 5 -7 11 0 20 18 22 2 55
-25 55 -26 0 -46 21 -26 28 8 3 9 7 3 11 -6 3 16 6 47 6 52 0 60 3 95 38 29
29 43 36 59 31 12 -3 24 -8 26 -10z m-624 -4 c3 -5 1 -10 -4 -10 -6 0 -11 5
-11 10 0 6 2 10 4 10 3 0 8 -4 11 -10z m-1184 -58 c-7 -2 -18 1 -23 6 -8 8 -4
9 13 5 13 -4 18 -8 10 -11z m424 8 c3 -5 -3 -10 -15 -10 -12 0 -18 5 -15 10 3
6 10 10 15 10 5 0 12 -4 15 -10z m-615 -40 c0 -5 -5 -10 -11 -10 -5 0 -7 5 -4
10 3 6 8 10 11 10 2 0 4 -4 4 -10z m-2276 -460 c27 -10 36 -43 15 -56 -8 -5
-8 -8 0 -13 8 -5 7 -19 -6 -47 -9 -21 -17 -41 -18 -44 -1 -3 -5 -14 -9 -25 -5
-11 -10 -26 -12 -34 -11 -35 -19 13 -28 162 -4 73 1 79 58 57z m896 -110 c0
-6 12 -18 28 -28 50 -31 24 -92 -33 -78 -21 5 -24 12 -24 44 1 20 -2 50 -6 66
-7 26 -6 27 14 17 11 -7 21 -16 21 -21z m-100 -24 c0 -27 -35 -43 -44 -20 -3
8 -2 14 3 14 5 0 11 9 14 21 7 27 27 15 27 -15z m-92 -53 c3 -18 -3 -21 -40
-25 -54 -6 -66 4 -39 31 28 28 75 24 79 -6z m962 -729 c11 -13 10 -16 -8 -21
-12 -3 -22 -9 -22 -14 0 -5 -4 -9 -9 -9 -5 0 -4 14 2 30 13 34 19 36 37 14z
m1505 -194 c3 -5 1 -10 -4 -10 -6 0 -11 5 -11 10 0 6 2 10 4 10 3 0 8 -4 11
-10z m-135 -277 c0 -8 9 -33 20 -55 11 -23 20 -50 20 -59 0 -10 7 -22 16 -27
15 -8 15 -16 0 -92 -10 -46 -26 -94 -36 -107 l-18 -23 -5 22 c-4 12 -4 32 -1
44 7 28 -44 56 -87 47 -33 -6 -33 -6 -19 -33 6 -11 15 -29 20 -40 6 -11 10
-27 10 -35 0 -8 -4 -15 -10 -15 -5 0 -10 -7 -10 -15 0 -9 -9 -15 -25 -15 -15
0 -25 6 -25 14 0 9 -7 12 -20 9 -26 -7 -25 5 5 49 14 20 25 50 25 65 0 49 12
74 38 84 24 9 24 11 9 26 -15 15 -17 15 -34 -4 -21 -25 -59 -38 -67 -24 -13
21 7 71 39 92 18 13 31 29 28 36 -3 7 2 13 10 13 8 0 22 11 31 25 9 14 23 25
32 25 8 0 17 7 20 15 5 12 10 13 20 4 8 -6 14 -18 14 -26z m-248 -95 c-8 -8
-16 -7 -27 2 -19 16 -19 30 0 30 8 0 14 3 14 8 -4 23 4 23 13 -1 7 -20 7 -32
0 -39z m-2093 -87 c-6 -16 -20 -37 -31 -48 l-21 -18 18 35 c31 61 51 79 34 31z
m1925 -72 c-8 -13 -24 -1 -24 18 0 13 3 13 15 3 8 -7 12 -16 9 -21z m-2014
-85 c-128 -233 -586 -786 -757 -915 -29 -22 -60 -47 -70 -57 -10 -10 -47 -42
-83 -72 -36 -29 -72 -60 -80 -69 -23 -25 -181 -141 -191 -141 -18 0 -8 11 52
54 279 203 709 635 887 891 23 33 71 101 106 150 36 50 89 125 117 168 29 42
54 75 57 73 2 -3 -15 -39 -38 -82z m-1200 -1259 c0 -18 -313 -189 -333 -182
-7 2 31 26 83 51 52 26 129 67 170 92 79 46 80 47 80 39z m-370 -200 c0 -6
-148 -75 -161 -75 -23 0 13 29 44 36 17 3 49 15 71 25 49 21 46 20 46 14z
m4935 -527 c-10 -33 -48 -109 -57 -114 -4 -3 -8 2 -8 10 0 8 5 18 10 21 6 3
10 12 10 19 0 8 7 30 15 50 17 39 41 51 30 14z m-74 -151 c-10 -9 -11 -8 -5 6
3 10 9 15 12 12 3 -3 0 -11 -7 -18z m-46 -115 c-10 -10 -16 -12 -13 -7 3 6 8
19 13 30 5 14 9 16 12 7 3 -8 -3 -21 -12 -30z"/>
<path d="M3114 13281 c4 -5 1 -12 -4 -14 -6 -3 -5 -4 2 -3 15 3 23 26 8 26 -6
0 -9 -4 -6 -9z"/>
<path d="M3032 13198 c6 -18 28 -21 28 -4 0 9 -7 16 -16 16 -9 0 -14 -5 -12
-12z"/>
<path d="M3070 13101 c0 -5 -10 -11 -22 -13 -25 -4 -37 -28 -14 -28 15 0 20
-11 17 -37 -1 -7 3 -13 9 -13 5 0 10 7 10 15 0 8 5 15 10 15 6 0 13 -7 16 -15
8 -21 34 -19 34 3 0 22 -36 82 -50 82 -5 0 -10 -4 -10 -9z"/>
<path d="M3344 13066 c-8 -32 1 -56 20 -56 12 0 14 8 9 33 -8 44 -21 55 -29
23z"/>
<path d="M2134 13283 c-8 -8 -14 -23 -14 -34 0 -28 56 -26 81 2 10 12 16 25
14 29 -9 15 -67 17 -81 3z"/>
<path d="M2280 13261 c0 -5 -9 -11 -20 -14 -29 -7 -25 -27 6 -27 20 0 25 -4
20 -16 -3 -9 -6 -20 -6 -25 0 -5 -8 -9 -17 -9 -17 -1 -17 -1 0 -11 9 -6 33 -8
52 -5 37 6 55 -11 55 -53 0 -28 20 -37 27 -12 7 28 37 35 68 15 24 -16 27 -16
45 1 11 10 20 29 20 42 0 12 5 23 10 23 6 0 4 10 -5 23 -8 13 -12 27 -8 30 3
4 -1 7 -11 7 -9 0 -15 -4 -12 -9 3 -5 -1 -11 -9 -15 -8 -3 -15 -12 -15 -21 0
-19 -26 -20 -34 0 -3 8 -16 15 -29 15 -54 0 -124 40 -111 62 3 5 -2 8 -10 8
-9 0 -16 -4 -16 -9z"/>
<path d="M2440 13225 c0 -8 5 -15 10 -15 6 0 10 7 10 15 0 8 -4 15 -10 15 -5
0 -10 -7 -10 -15z"/>
<path d="M2570 13180 c0 -5 5 -10 11 -10 5 0 7 5 4 10 -3 6 -8 10 -11 10 -2 0
-4 -4 -4 -10z"/>
<path d="M2220 13170 c0 -5 5 -10 10 -10 6 0 10 5 10 10 0 6 -4 10 -10 10 -5
0 -10 -4 -10 -10z"/>
<path d="M2286 13133 c-9 -9 -7 -33 3 -33 12 0 22 28 12 34 -5 3 -11 3 -15 -1z"/>
<path d="M2500 13080 c0 -5 7 -10 15 -10 8 0 15 5 15 10 0 6 -7 10 -15 10 -8
0 -15 -4 -15 -10z"/>
<path d="M2395 13020 c-3 -6 -1 -10 4 -10 6 0 11 -9 11 -21 0 -23 23 -21 28 2
3 17 -34 43 -43 29z"/>
<path d="M2115 12680 c-3 -5 1 -10 9 -10 9 0 16 5 16 10 0 6 -4 10 -9 10 -6 0
-13 -4 -16 -10z"/>
<path d="M2105 12450 c-16 -7 -17 -9 -3 -9 9 -1 20 4 23 9 7 11 7 11 -20 0z"/>
<path d="M2993 8459 c-19 -7 -21 -12 -13 -34 5 -13 7 -32 4 -40 -8 -19 19 -20
34 -2 13 15 37 75 26 64 -4 -3 -12 0 -18 7 -8 10 -18 12 -33 5z"/>
<path d="M2942 8293 c-3 -46 -1 -54 10 -45 16 13 18 94 3 99 -6 1 -11 -22 -13
-54z"/>
<path d="M2990 10890 c0 -5 5 -10 10 -10 6 0 10 5 10 10 0 6 -4 10 -10 10 -5
0 -10 -4 -10 -10z"/>
<path d="M3605 10380 c-3 -5 -1 -10 4 -10 6 0 11 5 11 10 0 6 -2 10 -4 10 -3
0 -8 -4 -11 -10z"/>
<path d="M3710 10242 c0 -17 27 -34 35 -22 3 6 11 7 17 4 6 -4 9 -1 6 7 -5 16
-58 26 -58 11z"/>
<path d="M6655 10190 c-124 -10 -233 -63 -336 -163 -44 -41 -169 -219 -169
-238 0 -5 -10 -9 -21 -9 -18 0 -20 -5 -16 -26 3 -16 -10 -61 -34 -121 -22 -52
-39 -104 -39 -116 0 -33 14 -9 44 76 16 42 33 77 38 77 6 0 17 -8 25 -17 14
-17 14 -17 8 2 -18 57 -16 75 15 137 17 34 40 72 49 83 10 11 27 36 39 55 67
112 238 217 393 241 102 16 166 7 251 -35 115 -55 182 -127 262 -278 29 -56
43 -94 39 -105 -16 -44 -93 -145 -167 -219 -170 -169 -391 -231 -586 -164 -36
12 -80 31 -97 42 -18 11 -33 16 -33 11 0 -15 102 -71 159 -87 114 -33 240 -12
401 67 95 47 206 144 281 247 63 87 69 84 120 -57 19 -51 37 -93 42 -93 10 0
0 37 -35 135 -50 139 -49 126 -12 201 37 75 74 168 74 187 0 20 -25 -25 -64
-118 -21 -49 -43 -93 -49 -97 -13 -8 -37 9 -37 26 0 7 -19 43 -41 82 -47 79
-153 188 -222 228 -51 30 -138 57 -177 54 -14 -1 -61 -4 -105 -8z"/>
<path d="M6597 9824 c-12 -12 -8 -52 6 -57 22 -8 39 8 35 34 -3 23 -27 37 -41
23z"/>
<path d="M4684 9754 c-45 -15 -67 -31 -139 -97 -47 -42 -71 -75 -105 -143 -24
-49 -45 -91 -48 -94 -8 -10 -31 33 -37 72 -4 21 -9 37 -12 35 -2 -3 3 -44 12
-91 l16 -87 -31 -116 c-16 -64 -30 -123 -29 -132 1 -17 5 -5 39 107 12 39 26
72 31 72 6 0 26 -35 45 -77 69 -152 164 -227 284 -228 59 0 70 3 123 39 59 40
148 146 166 199 14 40 7 33 -29 -25 -54 -88 -136 -166 -192 -183 -64 -19 -149
-5 -203 33 -83 58 -175 217 -175 302 0 114 139 322 255 382 80 42 134 42 208
-1 59 -33 125 -100 151 -150 9 -17 19 -31 22 -31 3 0 -9 26 -28 59 -75 132
-207 195 -324 155z"/>
<path d="M5126 9600 c-20 -91 -41 -134 -59 -123 -7 4 -8 -6 -4 -31 3 -22 0
-53 -9 -78 -18 -50 -17 -58 1 -34 13 17 17 17 31 5 16 -13 17 -11 11 29 -5 31
-1 66 18 133 15 51 24 101 23 113 -3 16 -6 12 -12 -14z"/>
<path d="M6170 9611 c0 -6 4 -13 10 -16 6 -3 7 1 4 9 -7 18 -14 21 -14 7z"/>
<path d="M6190 9575 c0 -20 53 -96 82 -116 36 -26 31 -14 -26 56 -55 69 -56
70 -56 60z"/>
<path d="M5221 9413 c-1 -6 -4 -20 -7 -30 -5 -17 -5 -17 6 0 6 10 9 23 6 30
-3 9 -5 9 -5 0z"/>
<path d="M4674 9396 c-9 -24 4 -48 23 -44 12 2 18 12 18 28 0 29 -32 41 -41
16z"/>
<path d="M5016 9275 c-9 -26 -7 -32 5 -12 6 10 9 21 6 23 -2 3 -7 -2 -11 -11z"/>
<path d="M5112 9250 c-2 -44 13 -74 24 -46 4 10 2 21 -4 25 -5 3 -12 17 -15
31 -3 20 -5 17 -5 -10z"/>
<path d="M5067 9063 c-4 -3 -7 -13 -7 -22 1 -13 3 -13 11 2 11 19 8 33 -4 20z"/>
<path d="M5000 8903 c-38 -81 -74 -182 -67 -189 2 -3 14 17 27 43 30 65 81
205 76 210 -2 2 -18 -27 -36 -64z"/>
<path d="M9580 8814 c-27 -15 -35 -22 -20 -19 44 11 80 27 80 36 0 13 -11 10
-60 -17z"/>
<path d="M9467 8739 c-46 -44 -23 -37 33 10 19 17 29 31 22 31 -7 0 -32 -18
-55 -41z"/>
<path d="M3635 8749 c-11 -17 1 -21 15 -4 8 9 8 15 2 15 -6 0 -14 -5 -17 -11z"/>
<path d="M3846 8653 c-6 -14 -5 -15 5 -6 7 7 10 15 7 18 -3 3 -9 -2 -12 -12z"/>
<path d="M9637 8504 c-65 -34 -56 -40 12 -8 62 30 101 27 162 -12 44 -27 56
-46 81 -129 l18 -60 -4 47 c-4 52 -46 130 -87 160 -14 11 -48 21 -80 24 -45 4
-62 0 -102 -22z"/>
<path d="M9549 8438 c-12 -23 -12 -23 10 -4 23 21 26 26 11 26 -5 0 -15 -10
-21 -22z"/>
<path d="M4170 8415 c19 -19 36 -35 39 -35 3 0 -10 16 -29 35 -19 19 -36 35
-39 35 -3 0 10 -16 29 -35z"/>
<path d="M9507 8393 c-4 -3 -7 -11 -7 -17 0 -6 5 -5 12 2 6 6 9 14 7 17 -3 3
-9 2 -12 -2z"/>
<path d="M5033 8340 c-13 -5 -23 -11 -23 -12 0 -2 33 -3 73 -4 67 -1 70 0 42
12 -35 15 -61 16 -92 4z"/>
<path d="M4269 8313 c20 -28 136 -142 181 -178 20 -17 19 -14 -7 20 -81 104
-240 248 -174 158z"/>
<path d="M5205 8278 c25 -26 47 -59 54 -83 16 -60 13 -145 -8 -206 -32 -92
-33 -95 -10 -54 24 44 38 56 112 98 47 26 197 144 197 154 0 3 -21 -11 -47
-31 -27 -20 -66 -49 -88 -64 -22 -14 -53 -37 -69 -50 -49 -39 -60 -28 -63 65
-3 116 -38 188 -100 207 -15 5 -10 -5 22 -36z"/>
<path d="M9430 8263 c-12 -20 -31 -71 -42 -112 -31 -117 -31 -146 0 -52 24 73
32 88 71 117 81 62 156 42 205 -54 45 -89 43 -212 -6 -355 -23 -67 -17 -89 7
-31 52 122 60 301 18 394 -32 72 -64 95 -131 95 -31 0 -66 -2 -77 -5 -16 -4
-20 0 -19 18 0 12 0 22 -2 22 -1 0 -12 -17 -24 -37z"/>
<path d="M9913 8230 c0 -36 2 -50 4 -32 2 17 2 47 0 65 -2 17 -4 3 -4 -33z"/>
<path d="M5589 8233 c-13 -16 -12 -17 4 -4 9 7 17 15 17 17 0 8 -8 3 -21 -13z"/>
<path d="M4810 8165 c-24 -25 -49 -45 -54 -45 -5 0 -20 10 -33 22 -25 24 -31
14 -9 -17 7 -11 15 -28 17 -38 3 -15 12 -10 49 25 62 58 95 98 84 98 -5 0 -30
-20 -54 -45z"/>
<path d="M9901 8114 c0 -11 3 -14 6 -6 3 7 2 16 -1 19 -3 4 -6 -2 -5 -13z"/>
<path d="M4090 8065 c7 -9 15 -13 17 -11 7 7 -7 26 -19 26 -6 0 -6 -6 2 -15z"/>
<path d="M4679 8033 c-13 -16 -12 -17 4 -4 16 13 21 21 13 21 -2 0 -10 -8 -17
-17z"/>
<path d="M4610 7981 c0 -17 18 -21 24 -6 3 9 0 15 -9 15 -8 0 -15 -4 -15 -9z"/>
<path d="M4750 7822 c0 -5 10 -17 22 -28 l21 -19 -18 28 c-18 28 -25 33 -25
19z"/>
<path d="M5124 7748 c-27 -40 -50 -77 -52 -83 -6 -19 58 60 84 103 43 72 21
57 -32 -20z"/>
<path d="M4375 7760 c3 -5 10 -10 16 -10 5 0 9 5 9 10 0 6 -7 10 -16 10 -8 0
-12 -4 -9 -10z"/>
<path d="M4287 7704 c-21 -14 -36 -28 -33 -31 4 -5 76 45 76 53 0 7 -5 5 -43
-22z"/>
<path d="M9608 7687 c-38 -70 -97 -128 -173 -171 -49 -28 -72 -46 -59 -46 54
0 191 118 235 203 21 40 18 52 -3 14z"/>
<path d="M4460 7680 c6 -11 20 -25 32 -31 21 -11 21 -11 -1 20 -25 35 -48 43
-31 11z"/>
<path d="M5983 7673 c9 -2 25 -2 35 0 9 3 1 5 -18 5 -19 0 -27 -2 -17 -5z"/>
<path d="M5853 7663 c9 -2 23 -2 30 0 6 3 -1 5 -18 5 -16 0 -22 -2 -12 -5z"/>
<path d="M5723 7643 c9 -2 23 -2 30 0 6 3 -1 5 -18 5 -16 0 -22 -2 -12 -5z"/>
<path d="M5562 7630 c-34 -4 -65 -10 -69 -13 -10 -11 55 -7 137 7 84 15 42 19
-68 6z"/>
<path d="M6170 7632 c0 -10 33 -42 43 -42 3 0 4 6 1 13 -6 15 -44 40 -44 29z"/>
<path d="M5428 7603 c6 -2 18 -2 25 0 6 3 1 5 -13 5 -14 0 -19 -2 -12 -5z"/>
<path d="M5280 7588 c-36 -5 -102 -15 -147 -23 -109 -20 -133 -19 -134 3 0 13
-2 13 -9 -5 -5 -12 -17 -26 -27 -33 -16 -10 -15 -11 7 -6 14 2 88 14 165 26
137 21 270 48 230 48 -11 -1 -49 -5 -85 -10z"/>
<path d="M4600 7546 c0 -2 8 -10 18 -17 15 -13 16 -12 3 4 -13 16 -21 21 -21
13z"/>
<path d="M6242 7510 c0 -14 2 -19 5 -12 2 6 2 18 0 25 -3 6 -5 1 -5 -13z"/>
<path d="M4885 7510 c-13 -6 -15 -9 -5 -9 8 0 22 4 30 9 18 12 2 12 -25 0z"/>
<path d="M4798 7483 c7 -3 16 -2 19 1 4 3 -2 6 -13 5 -11 0 -14 -3 -6 -6z"/>
<path d="M4665 7465 c-6 -8 -43 -21 -85 -29 -75 -15 -160 -45 -127 -46 9 0 50
9 90 20 39 11 99 28 132 37 48 13 56 18 40 24 -30 12 -39 10 -50 -6z"/>
<path d="M4748 7473 c7 -3 16 -2 19 1 4 3 -2 6 -13 5 -11 0 -14 -3 -6 -6z"/>
<path d="M6242 7430 c0 -14 2 -19 5 -12 2 6 2 18 0 25 -3 6 -5 1 -5 -13z"/>
<path d="M4385 7380 l-20 -9 20 0 c11 0 27 4 35 9 13 9 13 10 0 9 -8 0 -24 -4
-35 -9z"/>
<path d="M4235 7335 c-58 -21 -81 -36 -139 -94 -39 -39 -67 -74 -63 -78 4 -4
14 2 21 13 49 68 134 132 214 158 28 10 52 19 52 22 0 7 -14 4 -85 -21z"/>
<path d="M6062 7213 c-24 -14 -41 -27 -38 -30 6 -7 86 38 86 49 0 10 4 11 -48
-19z"/>
<path d="M5918 7151 c-75 -30 -91 -41 -62 -41 10 0 51 16 89 35 83 40 68 44
-27 6z"/>
<path d="M5735 7088 c-27 -4 -88 -21 -135 -38 -88 -31 -69 -34 34 -5 61 17
136 15 220 -6 60 -16 54 -2 -7 16 -31 9 -57 22 -59 28 -2 9 -17 11 -53 5z"/>
<path d="M3908 7003 c-19 -23 -31 -43 -24 -43 2 0 14 14 26 30 23 33 22 40 -2
13z"/>
<path d="M5323 6967 c-23 -7 -45 -16 -50 -21 -4 -5 1 -6 12 -3 11 3 39 11 63
17 23 6 42 13 42 15 0 7 -20 5 -67 -8z"/>
<path d="M5178 6913 c7 -3 16 -2 19 1 4 3 -2 6 -13 5 -11 0 -14 -3 -6 -6z"/>
<path d="M5013 6870 c-13 -5 -23 -12 -23 -15 0 -8 53 6 65 16 12 12 -13 11
-42 -1z"/>
<path d="M4834 6811 c-91 -33 -219 -93 -239 -113 l-20 -19 20 7 c11 4 38 18
59 32 21 13 64 33 95 44 31 12 77 28 104 38 26 9 50 20 54 24 12 11 -21 6 -73
-13z"/>
<path d="M3628 6638 c-14 -18 -31 -44 -38 -58 l-13 -25 22 19 c26 23 65 85 59
92 -3 2 -16 -10 -30 -28z"/>
<path d="M4523 6618 c-50 -67 -63 -92 -26 -52 56 60 85 104 69 104 -2 0 -21
-24 -43 -52z"/>
<path d="M4425 6475 c-21 -31 -35 -58 -32 -61 3 -3 22 20 42 51 21 31 35 58
33 60 -3 3 -22 -20 -43 -50z"/>
<path d="M4745 6491 c-20 -8 -4 -10 260 -31 72 -6 168 -15 215 -21 47 -6 114
-12 150 -14 48 -3 35 1 -55 15 -99 16 -246 32 -515 56 -19 2 -44 0 -55 -5z"/>
<path d="M4621 6455 c-30 -14 -51 -28 -48 -32 4 -3 18 2 31 11 14 9 34 16 44
16 10 0 27 7 38 15 31 24 -4 18 -65 -10z"/>
<path d="M5462 6415 c3 -3 59 -10 124 -15 66 -6 170 -19 232 -31 63 -11 123
-18 135 -16 18 4 18 5 -5 6 -15 0 -60 8 -100 16 -112 24 -400 53 -386 40z"/>
<path d="M4455 6350 c-3 -6 1 -7 9 -4 18 7 21 14 7 14 -6 0 -13 -4 -16 -10z"/>
<path d="M6000 6340 c34 -11 60 -11 35 0 -11 5 -29 8 -40 8 -16 0 -15 -2 5 -8z"/>
<path d="M4404 6315 c-10 -8 -14 -15 -8 -15 6 0 17 7 24 15 16 19 9 19 -16 0z"/>
<path d="M6105 6311 c11 -4 45 -11 75 -14 33 -4 47 -3 35 2 -11 5 -45 11 -75
15 -34 4 -47 3 -35 -3z"/>
<path d="M4303 6288 c-6 -13 -27 -44 -47 -70 -20 -27 -32 -48 -27 -48 14 0
106 79 105 90 -1 6 -2 19 -2 30 -2 27 -16 25 -29 -2z"/>
<path d="M6530 6181 c19 -16 37 -27 39 -25 8 7 -42 54 -58 54 -9 0 -2 -11 19
-29z"/>
<path d="M12330 6045 c0 -8 4 -15 10 -15 5 0 7 7 4 15 -4 8 -8 15 -10 15 -2 0
-4 -7 -4 -15z"/>
<path d="M12305 6040 c-3 -5 -1 -10 4 -10 6 0 11 5 11 10 0 6 -2 10 -4 10 -3
0 -8 -4 -11 -10z"/>
<path d="M3967 6004 c-61 -38 -67 -44 -39 -44 15 0 116 78 102 80 -3 0 -31
-16 -63 -36z"/>
<path d="M11970 6023 c0 -25 15 -38 25 -22 4 6 0 18 -9 27 -15 15 -16 15 -16
-5z"/>
<path d="M11900 6015 c0 -8 5 -15 10 -15 6 0 10 7 10 15 0 8 -4 15 -10 15 -5
0 -10 -7 -10 -15z"/>
<path d="M12265 6010 c-3 -5 1 -10 9 -10 9 0 16 5 16 10 0 6 -4 10 -9 10 -6 0
-13 -4 -16 -10z"/>
<path d="M6553 5935 c-38 -50 -110 -81 -218 -91 -38 -3 -77 -11 -85 -16 -10
-6 0 -7 30 -4 25 3 74 9 110 12 79 8 163 51 186 96 24 47 12 49 -23 3z"/>
<path d="M11637 5936 c-3 -8 -3 -17 0 -20 7 -7 33 13 33 25 0 15 -27 10 -33
-5z"/>
<path d="M11490 5920 c0 -5 7 -10 15 -10 8 0 15 5 15 10 0 6 -7 10 -15 10 -8
0 -15 -4 -15 -10z"/>
<path d="M11759 5910 c-15 -16 -15 -17 7 -17 13 0 24 5 24 13 0 21 -14 22 -31
4z"/>
<path d="M5733 5823 c48 -2 126 -2 175 0 48 1 8 3 -88 3 -96 0 -136 -2 -87 -3z"/>
<path d="M6033 5823 c9 -2 25 -2 35 0 9 3 1 5 -18 5 -19 0 -27 -2 -17 -5z"/>
<path d="M5009 5810 c-79 -8 -138 -24 -126 -36 3 -3 22 -1 43 5 22 5 109 13
194 17 85 4 166 11 180 15 32 10 -178 9 -291 -1z"/>
<path d="M5423 5813 c15 -2 39 -2 55 0 15 2 2 4 -28 4 -30 0 -43 -2 -27 -4z"/>
<path d="M10780 5641 c0 -6 5 -11 10 -11 6 0 10 -6 10 -13 0 -7 9 -18 20 -25
17 -10 21 -10 27 4 3 9 2 24 -4 33 -11 18 -63 28 -63 12z"/>
<path d="M4619 5572 c-45 -33 -142 -117 -190 -163 -35 -33 -58 -43 -212 -86
-38 -10 -8 -13 44 -3 102 19 415 110 449 131 17 10 -29 2 -68 -12 -46 -17 -82
-11 -94 17 -13 29 -10 32 87 111 48 39 35 43 -16 5z"/>
<path d="M5016 5551 c-5 -7 8 -11 41 -11 70 0 178 -18 251 -40 78 -24 125 -27
72 -4 -77 34 -352 75 -364 55z"/>
<path d="M8101 5513 c-14 -6 -163 -102 -223 -144 -15 -11 -81 -47 -145 -80
-65 -33 -122 -65 -128 -71 -14 -14 86 31 185 84 130 69 336 194 346 209 6 10
-13 11 -35 2z"/>
<path d="M10836 5501 c-4 -5 -1 -11 6 -13 8 -3 2 -15 -17 -32 l-30 -27 25 -19
c16 -12 29 -15 35 -9 5 5 24 9 43 9 24 0 42 8 58 26 26 27 48 24 39 -6 -4 -12
1 -19 17 -24 34 -9 48 -7 48 5 0 6 -7 9 -15 5 -12 -4 -15 3 -15 34 0 28 -4 40
-14 40 -8 0 -16 -6 -19 -12 -4 -10 -7 -10 -18 0 -7 6 -34 12 -60 12 -26 0 -51
5 -54 10 -8 12 -22 13 -29 1z"/>
<path d="M4775 5480 c-13 -5 -14 -9 -5 -9 8 0 24 4 35 9 13 5 14 9 5 9 -8 0
-24 -4 -35 -9z"/>
<path d="M11151 5476 c-8 -10 -25 -13 -52 -10 -54 7 -48 -17 7 -29 21 -4 43
-12 48 -17 15 -15 42 -12 56 5 9 11 8 19 -7 39 -21 29 -35 32 -52 12z"/>
<path d="M5530 5440 c14 -4 36 -8 50 -8 22 0 22 1 -5 8 -16 4 -39 8 -50 8 -16
0 -15 -2 5 -8z"/>
<path d="M5720 5391 c8 -5 33 -12 55 -15 27 -4 34 -4 20 3 -31 13 -93 24 -75
12z"/>
<path d="M5860 5344 c19 -8 55 -17 80 -20 42 -4 41 -3 -20 15 -77 24 -109 26
-60 5z"/>
<path d="M10580 5329 c0 -14 7 -19 24 -19 14 0 28 -4 31 -10 8 -13 75 -13 75
-1 0 6 -15 11 -32 13 -20 2 -32 8 -30 16 1 6 -1 13 -5 13 -56 9 -63 7 -63 -12z"/>
<path d="M6078 5283 c6 -2 18 -2 25 0 6 3 1 5 -13 5 -14 0 -19 -2 -12 -5z"/>
<path d="M6120 5276 c0 -2 11 -6 25 -8 13 -3 22 -1 19 3 -5 9 -44 13 -44 5z"/>
<path d="M6248 5228 c5 -5 16 -8 23 -6 8 3 3 7 -10 11 -17 4 -21 3 -13 -5z"/>
<path d="M7440 5145 c-25 -13 -40 -24 -33 -25 11 0 80 34 92 46 12 11 -20 0
-59 -21z"/>
<path d="M6400 5154 c0 -3 11 -19 25 -36 30 -35 33 -92 9 -143 -19 -41 -113
-131 -151 -146 -15 -6 -50 -17 -78 -25 l-50 -14 47 5 c100 10 222 98 254 182
22 57 14 141 -17 166 -21 17 -39 22 -39 11z"/>
<path d="M10745 5120 c3 -5 8 -10 11 -10 2 0 4 5 4 10 0 6 -5 10 -11 10 -5 0
-7 -4 -4 -10z"/>
<path d="M7215 5056 c-16 -7 -41 -18 -55 -24 -14 -6 -18 -11 -10 -11 8 0 38
11 65 24 52 25 52 35 0 11z"/>
<path d="M6748 4905 c-3 -3 -45 -12 -94 -21 -92 -16 -140 -33 -96 -34 32 0
195 40 207 51 5 6 5 9 -1 9 -6 0 -13 -2 -16 -5z"/>
<path d="M4979 4846 c-106 -28 -252 -80 -339 -119 -36 -16 -89 -38 -118 -49
-39 -14 -56 -28 -68 -51 -9 -18 -29 -45 -44 -62 -27 -29 -74 -104 -182 -295
-51 -91 -101 -204 -148 -333 -16 -43 -37 -93 -48 -111 -11 -18 -25 -50 -31
-72 -7 -21 -16 -48 -21 -59 -11 -26 -41 -101 -75 -190 -52 -135 -78 -191 -158
-340 -90 -167 -176 -306 -237 -380 -70 -86 -200 -210 -260 -249 -25 -16 -56
-37 -70 -46 -39 -26 -99 -55 -173 -85 -40 -16 -75 -38 -86 -54 -30 -42 -184
-344 -261 -511 -40 -85 -101 -216 -137 -290 -35 -74 -75 -161 -89 -192 -13
-31 -35 -77 -49 -102 -41 -74 -145 -314 -145 -336 0 -20 -99 -148 -269 -345
-105 -122 -312 -355 -351 -395 -14 -14 -58 -60 -99 -103 l-74 -77 485 0 486 0
11 82 c7 46 16 106 21 133 5 28 18 113 30 190 12 77 33 203 47 280 50 282 71
416 79 518 3 44 10 77 16 77 24 0 1 -203 -78 -675 -29 -176 -60 -374 -69 -440
-9 -66 -19 -130 -22 -142 l-5 -23 260 0 260 0 6 248 c4 136 11 333 17 437 5
105 14 314 19 465 6 151 15 297 20 323 6 26 10 64 10 82 0 19 5 35 10 35 7 0
8 -28 5 -77 -3 -43 -10 -209 -15 -370 -5 -160 -14 -322 -19 -360 -5 -37 -12
-229 -15 -426 l-6 -357 1068 0 1068 0 12 108 c20 183 41 322 68 452 14 69 29
148 34 175 5 28 20 102 34 165 14 63 37 176 51 250 15 74 35 172 46 217 10 45
19 100 19 121 0 21 7 62 16 91 8 29 24 98 34 153 11 55 31 139 46 187 41 137
152 483 205 640 27 79 49 152 49 162 0 10 -20 35 -44 56 -58 49 -82 112 -97
250 -24 210 39 585 125 751 9 17 16 40 16 52 0 11 19 60 41 108 48 99 47 98
55 89 4 -4 -6 -57 -21 -119 -24 -100 -27 -125 -22 -218 9 -155 44 -382 72
-465 24 -74 82 -205 89 -205 2 0 -16 52 -40 116 -24 64 -44 123 -44 131 0 9
-9 55 -20 102 -37 164 -43 245 -31 403 6 81 15 158 20 170 5 13 19 62 31 110
24 92 80 187 111 188 11 0 22 -19 34 -60 10 -33 20 -58 22 -56 13 12 -81 310
-181 576 -28 74 -29 80 -15 81 8 1 77 1 154 0 99 -1 136 1 125 8 -8 6 -43 11
-77 11 -34 0 -137 9 -230 19 -205 24 -409 39 -608 45 -134 5 -159 3 -236 -18z
m311 -27 c0 -8 4 -8 15 1 28 23 36 5 11 -25 -14 -16 -24 -31 -24 -34 1 -3 -2
-18 -6 -33 -9 -30 -29 -39 -24 -10 2 12 -3 16 -19 15 -16 -2 -21 2 -17 12 4
10 0 15 -15 15 -12 0 -21 5 -21 11 0 5 3 8 8 6 4 -3 13 1 20 9 10 11 10 14 0
14 -19 1 34 29 55 30 9 0 17 -5 17 -11z m-104 -26 c-10 -10 -19 5 -10 18 6 11
8 11 12 0 2 -7 1 -15 -2 -18z m482 5 c112 -12 130 -21 151 -78 14 -39 20 -53
50 -121 11 -26 25 -68 31 -94 6 -26 17 -60 25 -76 8 -15 22 -56 30 -90 l14
-63 -52 -51 c-29 -28 -59 -67 -67 -85 -8 -19 -24 -52 -37 -72 -13 -21 -23 -40
-23 -44 0 -3 -9 -17 -20 -31 -11 -14 -18 -29 -15 -33 3 -4 -2 -13 -10 -20 -8
-7 -15 -21 -15 -32 0 -10 -4 -17 -9 -14 -5 3 -12 -10 -15 -29 -4 -19 -11 -35
-17 -35 -6 0 -7 -4 -4 -10 3 -5 1 -10 -4 -10 -6 0 -10 -3 -9 -7 0 -5 -1 -15
-5 -23 -3 -8 -7 -26 -10 -40 -2 -14 -8 -34 -12 -45 -6 -17 -5 -18 5 -5 10 13
11 13 7 -1 -3 -10 -11 -37 -18 -60 -7 -24 -19 -54 -27 -66 -7 -12 -12 -27 -11
-35 2 -7 -1 -31 -6 -53 -8 -39 -8 -40 -14 -11 -3 16 -12 31 -20 34 -8 3 -11 0
-8 -5 11 -17 25 -93 17 -88 -5 3 -7 -24 -7 -59 1 -35 -1 -62 -5 -59 -5 2 -8
-14 -8 -36 0 -22 -5 -42 -12 -44 -10 -4 -10 -8 1 -15 17 -12 5 -52 -15 -52
-11 0 -13 -6 -9 -21 5 -15 4 -19 -4 -15 -15 10 -14 56 2 56 8 0 8 3 -2 9 -12
8 -12 12 2 26 21 20 21 51 2 89 -19 35 -19 46 -1 46 8 0 17 -12 19 -27 2 -16
2 -12 0 7 -2 19 -5 51 -6 70 l-2 36 -45 -6 -46 -6 8 56 c4 30 5 85 2 123 -6
64 -6 67 15 67 11 0 21 4 21 8 0 12 79 42 85 32 2 -4 13 -10 24 -13 15 -3 18
0 14 17 -4 16 -2 18 5 7 8 -11 10 -8 9 13 -2 20 -4 23 -12 13 -16 -22 -45 -28
-51 -12 -4 8 -12 15 -19 15 -7 0 -16 8 -19 18 -18 46 -32 62 -56 62 -24 0 -25
-2 -23 -60 2 -47 0 -60 -12 -60 -8 0 -15 9 -15 20 0 11 -5 20 -12 20 -6 0 -3
9 7 20 15 16 15 22 5 35 -7 8 -13 35 -14 60 -1 40 1 45 22 45 19 0 22 -5 22
-35 0 -28 3 -33 18 -28 37 13 44 25 25 46 -18 19 -17 20 14 15 18 -2 30 -1 27
3 -2 4 0 9 5 11 5 1 11 12 13 23 2 15 -2 20 -17 18 -158 -14 -160 -14 -180 1
-20 16 -20 16 -1 31 11 8 32 15 47 15 15 0 31 5 34 10 4 6 -6 10 -22 10 -16 0
-36 9 -46 20 -17 20 -16 20 49 20 l65 0 -3 37 c-3 36 -28 61 -28 28 0 -16 -8
-17 -70 -11 -38 4 -75 4 -82 0 -7 -4 -24 -9 -39 -11 -20 -2 -28 3 -32 18 -7
27 1 49 20 49 8 0 11 -5 7 -12 -4 -7 -4 -10 1 -6 4 4 14 3 22 -3 10 -9 13 -8
13 1 0 9 20 10 80 5 l80 -7 0 31 c0 18 -9 40 -21 52 -20 20 -23 20 -31 5 -10
-18 -98 -23 -98 -5 0 5 -4 7 -10 4 -6 -4 -10 8 -10 29 0 19 -4 37 -8 40 -5 3
-7 -15 -5 -40 2 -24 0 -44 -5 -44 -5 0 -8 10 -8 23 1 16 -4 21 -16 19 -13 -2
-16 2 -11 15 4 10 10 20 15 23 4 3 9 27 10 52 2 25 7 43 12 40 5 -3 7 10 4 29
-6 36 -1 62 10 55 4 -2 7 14 7 37 -1 41 22 107 37 107 4 0 8 11 8 25 0 31 56
155 70 155 5 0 7 7 3 16 -5 14 4 15 83 10 49 -4 135 -12 192 -18z m-500 -96
c2 -7 -3 -12 -12 -12 -9 0 -16 7 -16 16 0 17 22 14 28 -4z m85 -36 c3 -8 0
-22 -7 -31 -11 -16 -13 -14 -13 14 0 32 11 41 20 17z m-260 -193 c-7 -2 -19
-2 -25 0 -7 3 -2 5 12 5 14 0 19 -2 13 -5z m237 -265 c0 -18 -2 -20 -9 -8 -6
8 -7 18 -5 22 9 14 14 9 14 -14z m130 -318 c0 -32 -1 -33 -24 -24 -16 6 -22
35 -9 47 16 17 33 5 33 -23z m-12 -289 c-2 -22 -6 -37 -9 -33 -7 7 0 72 7 72
3 0 3 -18 2 -39z m32 -21 c0 -5 -4 -10 -10 -10 -5 0 -10 5 -10 10 0 6 5 10 10
10 6 0 10 -4 10 -10z m17 -72 c-2 -13 -4 -5 -4 17 -1 22 1 32 4 23 2 -10 2
-28 0 -40z m1 -46 l22 -19 -25 -11 c-15 -7 -25 -8 -25 -2 0 6 5 10 10 10 6 0
10 5 10 10 0 6 -7 10 -15 10 -8 0 -15 5 -15 10 0 15 15 12 38 -8z m39 -164
c-3 -8 -6 -5 -6 6 -1 11 2 17 5 13 3 -3 4 -12 1 -19z m80 -70 c-3 -8 -6 -5 -6
6 -1 11 2 17 5 13 3 -3 4 -12 1 -19z m-37 -28 c0 -5 -4 -10 -10 -10 -5 0 -10
5 -10 10 0 6 5 10 10 10 6 0 10 -4 10 -10z m80 -141 c0 -6 -4 -7 -10 -4 -5 3
-10 11 -10 16 0 6 5 7 10 4 6 -3 10 -11 10 -16z m0 -23 c0 -3 -4 -8 -10 -11
-5 -3 -10 -1 -10 4 0 6 5 11 10 11 6 0 10 -2 10 -4z m-437 -481 c44 -18 94
-103 126 -212 18 -61 21 -87 15 -165 -12 -172 -84 -278 -189 -278 -149 0 -235
189 -191 418 29 150 100 244 192 251 6 1 28 -6 47 -14z m-2553 -1058 c0 -8 -6
-14 -14 -14 -8 0 -12 6 -9 14 3 7 9 13 14 13 5 0 9 -6 9 -13z m-30 -77 c0 -13
-6 -20 -17 -19 -11 0 -13 3 -5 6 6 2 12 11 12 19 0 8 2 14 5 14 3 0 5 -9 5
-20z m-5 -61 c12 -18 -3 -22 -20 -5 -14 14 -14 16 -1 16 8 0 18 -5 21 -11z
m-59 -68 c-4 -5 0 -11 6 -14 10 -3 10 -7 -1 -20 -7 -9 -17 -14 -22 -11 -13 8
-11 42 4 47 18 8 19 8 13 -2z"/>
<path d="M5256 4804 c-18 -13 -18 -14 -2 -14 9 0 14 -4 11 -10 -3 -5 0 -10 8
-10 20 0 29 26 14 38 -8 7 -18 6 -31 -4z"/>
<path d="M5282 4410 c8 -29 16 -40 29 -40 25 0 24 26 -1 33 -12 3 -20 14 -20
26 0 12 -4 21 -9 21 -5 0 -4 -17 1 -40z"/>
<path d="M5251 4324 c0 -11 3 -14 6 -6 3 7 2 16 -1 19 -3 4 -6 -2 -5 -13z"/>
<path d="M5361 4274 c0 -11 3 -14 6 -6 3 7 2 16 -1 19 -3 4 -6 -2 -5 -13z"/>
<path d="M5431 4274 c0 -11 3 -14 6 -6 3 7 2 16 -1 19 -3 4 -6 -2 -5 -13z"/>
<path d="M5445 4020 c-8 -13 14 -52 26 -45 5 4 7 11 4 16 -4 5 -1 9 6 9 8 0 8
4 -1 15 -14 17 -26 19 -35 5z"/>
<path d="M5591 3875 c-1 -58 8 -75 43 -74 29 2 30 2 4 6 -23 4 -28 11 -33 41
-9 53 -13 61 -14 27z"/>
<path d="M5640 3875 c0 -8 5 -15 10 -15 6 0 10 7 10 15 0 8 -4 15 -10 15 -5 0
-10 -7 -10 -15z"/>
<path d="M5610 3770 c0 -5 5 -10 10 -10 6 0 10 5 10 10 0 6 -4 10 -10 10 -5 0
-10 -4 -10 -10z"/>
<path d="M5607 3630 c3 -11 7 -20 9 -20 2 0 4 9 4 20 0 11 -4 20 -9 20 -5 0
-7 -9 -4 -20z"/>
<path d="M5530 3581 c0 -5 7 -12 16 -15 24 -9 27 -7 10 9 -17 17 -26 19 -26 6z"/>
<path d="M5520 3449 c0 -5 4 -8 9 -5 5 4 12 0 14 -6 3 -8 6 -6 6 5 1 9 -6 17
-14 17 -8 0 -15 -5 -15 -11z"/>
<path d="M5537 3393 c-3 -5 -1 -17 4 -28 7 -17 8 -17 8 8 1 27 -4 34 -12 20z"/>
<path d="M11086 4835 c-3 -8 -1 -15 4 -15 13 0 22 18 11 24 -5 3 -11 -1 -15
-9z"/>
<path d="M11106 4731 c-4 -7 -5 -15 -2 -18 9 -9 19 4 14 18 -4 11 -6 11 -12 0z"/>
<path d="M10340 4710 c0 -21 15 -27 25 -10 3 6 15 10 26 10 10 0 19 5 19 10 0
6 -16 10 -35 10 -28 0 -35 -4 -35 -20z"/>
<path d="M10440 4680 c0 -5 5 -10 10 -10 6 0 10 5 10 10 0 6 -4 10 -10 10 -5
0 -10 -4 -10 -10z"/>
<path d="M10177 4659 c-9 -5 -22 -7 -27 -4 -16 10 -11 -4 9 -24 18 -18 88 -47
96 -39 9 9 -8 48 -21 48 -8 0 -14 7 -14 15 0 17 -17 19 -43 4z"/>
<path d="M10690 4535 c0 -9 6 -12 15 -9 8 4 12 10 9 15 -8 14 -24 10 -24 -6z"/>
<path d="M11350 4525 c14 -17 30 -20 30 -4 0 5 -4 7 -10 4 -5 -3 -10 -1 -10 4
0 6 -5 11 -11 11 -8 0 -8 -5 1 -15z"/>
<path d="M12580 3951 c0 -11 -4 -23 -10 -26 -13 -8 -13 -25 -1 -25 6 0 22 12
38 26 22 21 25 27 13 34 -24 15 -40 11 -40 -9z"/>
<path d="M13296 3825 c-15 -8 -46 -15 -68 -15 -35 0 -39 -2 -33 -20 7 -22 2
-24 -25 -10 -22 12 -50 3 -50 -15 0 -7 9 -15 21 -18 12 -3 18 -10 15 -15 -3
-6 2 -8 13 -5 11 3 22 12 24 22 4 14 5 14 6 -1 1 -12 10 -18 29 -19 l27 -1
-27 -10 c-16 -5 -28 -16 -28 -23 0 -7 -14 -18 -31 -24 -17 -6 -28 -14 -25 -19
3 -5 -4 -22 -14 -40 -14 -23 -29 -33 -62 -39 -46 -9 -59 -30 -34 -56 8 -8 12
-17 9 -21 -4 -3 -1 -6 6 -6 8 0 10 -7 6 -20 -3 -10 -1 -29 5 -40 9 -17 14 -19
26 -10 7 7 25 10 38 6 16 -4 26 -1 30 9 3 8 1 15 -4 15 -22 0 -8 21 24 37 43
20 62 13 71 -26 9 -43 29 -39 45 10 8 23 20 43 27 46 7 3 13 16 13 29 0 18 -4
22 -16 17 -12 -4 -15 -2 -12 8 3 8 11 13 17 11 8 -1 11 35 10 128 0 71 -1 130
-2 130 -1 0 -15 -7 -31 -15z"/>
<path d="M6122 3790 c0 -14 2 -19 5 -12 2 6 2 18 0 25 -3 6 -5 1 -5 -13z"/>
<path d="M12545 3750 c-4 -7 -1 -16 6 -21 17 -10 26 8 11 23 -6 6 -12 6 -17
-2z"/>
<path d="M13045 3400 c3 -5 8 -10 11 -10 2 0 4 5 4 10 0 6 -5 10 -11 10 -5 0
-7 -4 -4 -10z"/>
<path d="M13310 3376 c0 -8 5 -18 10 -21 6 -3 10 3 10 14 0 12 -4 21 -10 21
-5 0 -10 -6 -10 -14z"/>
</g>
</svg>
